{
  "accessors": [
    {
      "bufferView": 2,
      "componentType": 5126,
      "count": 1813,
      "max": [
        10.529979705810547,
        9.0,
        3.0
      ],
      "min": [
        0.0,
        -9.0,
        -25.210899353027344
      ],
      "type": "VEC3"
    },
    {
      "bufferView": 2,
      "byteOffset": 21756,
      "componentType": 5126,
      "count": 1813,
      "max": [
        1.0,
        1.0,
        1.0
      ],
      "min": [
        -1.0,
        -1.0,
        -1.0
      ],
      "type": "VEC3"
    },
    {
      "bufferView": 1,
      "componentType": 5126,
      "count": 1813,
      "max": [
        0.997160017490387,
        0.9957000017166138
      ],
      "min": [
        0.004290000069886446,
        0.0031900000758469105
      ],
      "type": "VEC2"
    },
    {
      "bufferView": 0,
      "componentType": 5125,
      "count": 5916,
      "type": "SCALAR"
    },
    {
      "bufferView": 2,
      "byteOffset": 43512,
      "componentType": 5126,
      "count": 86,
      "max": [
        11.5,
        6.90008020401001,
        1.9000799655914307
      ],
      "min": [
        8.0,
        -6.90008020401001,
        -9.400079727172852
      ],
      "type": "VEC3"
    },
    {
      "bufferView": 2,
      "byteOffset": 44544,
      "componentType": 5126,
      "count": 86,
      "max": [
        1.0,
        1.0,
        1.0
      ],
      "min": [
        0.0,
        -1.0,
        -1.0
      ],
      "type": "VEC3"
    },
    {
      "bufferView": 1,
      "byteOffset": 14504,
      "componentType": 5126,
      "count": 86,
      "max": [
        0.0,
        0.0
      ],
      "min": [
        0.0,
        0.0
      ],
      "type": "VEC2"
    },
    {
      "bufferView": 0,
      "byteOffset": 23664,
      "componentType": 5125,
      "count": 240,
      "type": "SCALAR"
    },
    {
      "bufferView": 2,
      "byteOffset": 45576,
      "componentType": 5126,
      "count": 344,
      "max": [
        6.763299942016602,
        4.263299942016602,
        5.27947998046875
      ],
      "min": [
        4.236700057983398,
        1.7367000579833984,
        2.910789966583252
      ],
      "type": "VEC3"
    },
    {
      "bufferView": 2,
      "byteOffset": 49704,
      "componentType": 5126,
      "count": 344,
      "max": [
        0.9985812306404114,
        0.9985812306404114,
        0.9725856184959412
      ],
      "min": [
        -0.9985812306404114,
        -0.9985812306404114,
        -0.9725856184959412
      ],
      "type": "VEC3"
    },
    {
      "bufferView": 1,
      "byteOffset": 15192,
      "componentType": 5126,
      "count": 344,
      "max": [
        0.9897699952125549,
        1.0024299621582031
      ],
      "min": [
        0.009999999776482582,
        0.00965999998152256
      ],
      "type": "VEC2"
    },
    {
      "bufferView": 0,
      "byteOffset": 24624,
      "componentType": 5125,
      "count": 1374,
      "type": "SCALAR"
    }
  ],
  "asset": {
    "extras": {
      "author": "maxdragonn (https://sketchfab.com/maxdragon)",
      "license": "CC-BY-4.0 (http://creativecommons.org/licenses/by/4.0/)",
      "source": "https://sketchfab.com/3d-models/industrial-pa-phone-fea2059900234ffeb470c6235215efcc",
      "title": "Industrial PA phone"
    },
    "generator": "Sketchfab-12.67.0",
    "version": "2.0"
  },
  "bufferViews": [
    {
      "buffer": 0,
      "byteLength": 30120,
      "name": "floatBufferViews",
      "target": 34963
    },
    {
      "buffer": 0,
      "byteLength": 17944,
      "byteOffset": 30120,
      "byteStride": 8,
      "name": "floatBufferViews",
      "target": 34962
    },
    {
      "buffer": 0,
      "byteLength": 53832,
      "byteOffset": 48064,
      "byteStride": 12,
      "name": "floatBufferViews",
      "target": 34962
    }
  ],
  "buffers": [
    {
      "byteLength": 101896,
      "uri": "scene.bin"
    }
  ],
  "extensionsRequired": [
    "KHR_materials_pbrSpecularGlossiness"
  ],
  "extensionsUsed": [
    "KHR_materials_pbrSpecularGlossiness"
  ],
  "images": [
    {
      "uri": "textures/wallphone_diffuse.png"
    },
    {
      "uri": "textures/glass_b_diffuse.png"
    },
    {
      "uri": "textures/light_red_diffuse.png"
    }
  ],
  "materials": [
    {
      "doubleSided": true,
      "extensions": {
        "KHR_materials_pbrSpecularGlossiness": {
          "diffuseFactor": [
            1.0,
            1.0,
            1.0,
            1.0
          ],
          "diffuseTexture": {
            "index": 0
          },
          "glossinessFactor": 0.5246049407487126,
          "specularFactor": [
            0.09291264615216242,
            0.09291264615216242,
            0.09291264615216242
          ]
        }
      },
      "name": "wallphone"
    },
    {
      "alphaMode": "BLEND",
      "doubleSided": true,
      "extensions": {
        "KHR_materials_pbrSpecularGlossiness": {
          "diffuseFactor": [
            0.24491697523545472,
            0.24491697523545472,
            0.24491697523545472,
            0.4820437286053907
          ],
          "diffuseTexture": {
            "index": 1
          },
          "glossinessFactor": 0.9319765426919359,
          "specularFactor": [
            0.8711748110586189,
            0.8711748110586189,
            0.8711748110586189
          ]
        }
      },
      "name": "glass_b"
    },
    {
      "alphaMode": "BLEND",
      "doubleSided": true,
      "emissiveFactor": [
        0.13870395028850424,
        0.13870395028850424,
        0.13870395028850424
      ],
      "extensions": {
        "KHR_materials_pbrSpecularGlossiness": {
          "diffuseFactor": [
            1.0,
            1.0,
            1.0,
            0.43340234329873717
          ],
          "diffuseTexture": {
            "index": 2
          },
          "glossinessFactor": 0.8286135989152972,
          "specularFactor": [
            0.11723333880548918,
            0.11723333880548918,
            0.11723333880548918
          ]
        }
      },
      "name": "light_red"
    }
  ],
  "meshes": [
    {
      "name": "wallphone_0",
      "primitives": [
        {
          "attributes": {
            "NORMAL": 1,
            "POSITION": 0,
            "TEXCOORD_0": 2
          },
          "indices": 3,
          "material": 0,
          "mode": 4
        }
      ]
    },
    {
      "name": "wallphone_1",
      "primitives": [
        {
          "attributes": {
            "NORMAL": 5,
            "POSITION": 4,
            "TEXCOORD_0": 6
          },
          "indices": 7,
          "material": 1,
          "mode": 4
        }
      ]
    },
    {
      "name": "wallphone_2",
      "primitives": [
        {
          "attributes": {
            "NORMAL": 9,
            "POSITION": 8,
            "TEXCOORD_0": 10
          },
          "indices": 11,
          "material": 2,
          "mode": 4
        }
      ]
    }
  ],
  "nodes": [
    {
      "children": [
        1
      ],
      "matrix": [
        1.0,
        0.0,
        0.0,
        0.0,
        0.0,
        2.220446049250313e-16,
        -1.0,
        0.0,
        0.0,
        1.0,
        2.220446049250313e-16,
        0.0,
        0.0,
        0.0,
        0.0,
        1.0
      ],
      "name": "Sketchfab_model"
    },
    {
      "children": [
        2,
        4
      ],
      "name": "Root"
    },
    {
      "children": [
        3
      ],
      "matrix": [
        -0.29086000000000006,
        0.9551700000000001,
        -0.05519000000000001,
        0.0,
        -0.7711,
        -0.19988000000000003,
        0.6045200000000001,
        0.0,
        0.5663900000000001,
        0.21839000000000003,
        0.7946700000000001,
        0.0,
        4.076250000000001,
        1.00545,
        5.903860000000001,
        1.0
      ],
      "name": "Lamp"
    },
    {
      "name": "Lamp"
    },
    {
      "children": [
        5,
        6,
        7
      ],
      "name": "wallphone"
    },
    {
      "mesh": 0,
      "name": "wallphone_0"
    },
    {
      "mesh": 1,
      "name": "wallphone_1"
    },
    {
      "mesh": 2,
      "name": "wallphone_2"
    }
  ],
  "samplers": [
    {
      "magFilter": 9729,
      "minFilter": 9987,
      "wrapS": 10497,
      "wrapT": 10497
    }
  ],
  "scene": 0,
  "scenes": [
    {
      "name": "Sketchfab_Scene",
      "nodes": [
        0
      ]
    }
  ],
  "textures": [
    {
      "sampler": 0,
      "source": 0
    },
    {
      "sampler": 0,
      "source": 1
    },
    {
      "sampler": 0,
      "source": 2
    }
  ]
}
