{
  "accessors": [
    {
      "bufferView": 2,
      "componentType": 5126,
      "count": 1229,
      "max": [
        0.827080249786377,
        0.08991116285324097,
        0.48656097054481506
      ],
      "min": [
        0.11260479688644409,
        -0.2548092007637024,
        -0.3711497187614441
      ],
      "type": "VEC3"
    },
    {
      "bufferView": 2,
      "byteOffset": 14748,
      "componentType": 5126,
      "count": 1229,
      "max": [
        0.9960039258003235,
        0.99942946434021,
        0.9894187450408936
      ],
      "min": [
        -0.9942778944969177,
        -0.999963641166687,
        -0.9974402785301208
      ],
      "type": "VEC3"
    },
    {
      "bufferView": 3,
      "componentType": 5126,
      "count": 1229,
      "max": [
        0.9996721744537354,
        0.9961674809455872,
        0.999772846698761,
        1.0
      ],
      "min": [
        -0.9797430634498596,
        -0.9990135431289673,
        -0.9895200729370117,
        1.0
      ],
      "type": "VEC4"
    },
    {
      "bufferView": 1,
      "componentType": 5126,
      "count": 1229,
      "max": [
        0.9856111407279968,
        0.9786604642868042
      ],
      "min": [
        0.1939743161201477,
        0.02141442522406578
      ],
      "type": "VEC2"
    },
    {
      "bufferView": 1,
      "byteOffset": 9832,
      "componentType": 5126,
      "count": 1229,
      "max": [
        0.9856111407279968,
        0.9786604642868042
      ],
      "min": [
        0.1939743161201477,
        0.02141442522406578
      ],
      "type": "VEC2"
    },
    {
      "bufferView": 0,
      "componentType": 5125,
      "count": 5526,
      "type": "SCALAR"
    },
    {
      "bufferView": 2,
      "byteOffset": 29496,
      "componentType": 5126,
      "count": 1270,
      "max": [
        0.018140938133001328,
        -0.010804519057273865,
        0.8183372020721436
      ],
      "min": [
        -0.6131374835968018,
        -0.26689058542251587,
        -0.40946611762046814
      ],
      "type": "VEC3"
    },
    {
      "bufferView": 2,
      "byteOffset": 44736,
      "componentType": 5126,
      "count": 1270,
      "max": [
        0.9982842206954956,
        0.9994070529937744,
        0.9889613389968872
      ],
      "min": [
        -0.9841196537017822,
        -0.9989674687385559,
        -0.9948976039886475
      ],
      "type": "VEC3"
    },
    {
      "bufferView": 3,
      "byteOffset": 19664,
      "componentType": 5126,
      "count": 1270,
      "max": [
        0.9935168623924255,
        0.9996052384376526,
        0.9742953777313232,
        1.0
      ],
      "min": [
        -0.9979559779167175,
        -0.9920476675033569,
        -0.9989102482795715,
        1.0
      ],
      "type": "VEC4"
    },
    {
      "bufferView": 1,
      "byteOffset": 19664,
      "componentType": 5126,
      "count": 1270,
      "max": [
        0.46333736181259155,
        0.984595000743866
      ],
      "min": [
        0.007500100415199995,
        0.009859949350357056
      ],
      "type": "VEC2"
    },
    {
      "bufferView": 1,
      "byteOffset": 29824,
      "componentType": 5126,
      "count": 1270,
      "max": [
        0.46333736181259155,
        0.984595000743866
      ],
      "min": [
        0.007500100415199995,
        0.009859949350357056
      ],
      "type": "VEC2"
    },
    {
      "bufferView": 0,
      "byteOffset": 22104,
      "componentType": 5125,
      "count": 4914,
      "type": "SCALAR"
    }
  ],
  "asset": {
    "extras": {
      "author": "Raystani E. de Oliveira (https://sketchfab.com/raystani50)",
      "license": "CC-BY-4.0 (http://creativecommons.org/licenses/by/4.0/)",
      "source": "https://sketchfab.com/3d-models/stylized-sword-and-shield-lowpoly-e076a1a9fae84c97b8a6cdd5c9162ca2",
      "title": "Stylized Sword And Shield (lowpoly)"
    },
    "generator": "Sketchfab-12.66.0",
    "version": "2.0"
  },
  "bufferViews": [
    {
      "buffer": 0,
      "byteLength": 41760,
      "name": "floatBufferViews",
      "target": 34963
    },
    {
      "buffer": 0,
      "byteLength": 39984,
      "byteOffset": 41760,
      "byteStride": 8,
      "name": "floatBufferViews",
      "target": 34962
    },
    {
      "buffer": 0,
      "byteLength": 59976,
      "byteOffset": 81744,
      "byteStride": 12,
      "name": "floatBufferViews",
      "target": 34962
    },
    {
      "buffer": 0,
      "byteLength": 39984,
      "byteOffset": 141720,
      "byteStride": 16,
      "name": "floatBufferViews",
      "target": 34962
    }
  ],
  "buffers": [
    {
      "byteLength": 181704,
      "uri": "scene.bin"
    }
  ],
  "images": [
    {
      "uri": "textures/Material.001_baseColor.jpeg"
    },
    {
      "uri": "textures/Material.001_metallicRoughness.png"
    },
    {
      "uri": "textures/Material.001_normal.png"
    }
  ],
  "materials": [
    {
      "doubleSided": true,
      "name": "Material.001",
      "normalTexture": {
        "index": 2
      },
      "occlusionTexture": {
        "index": 1
      },
      "pbrMetallicRoughness": {
        "baseColorTexture": {
          "index": 0
        },
        "metallicFactor": 0.0,
        "metallicRoughnessTexture": {
          "index": 1
        }
      }
    },
    {
      "doubleSided": true,
      "name": "Material.002",
      "normalTexture": {
        "index": 2
      },
      "occlusionTexture": {
        "index": 1
      },
      "pbrMetallicRoughness": {
        "baseColorTexture": {
          "index": 0
        },
        "metallicFactor": 0.0,
        "metallicRoughnessTexture": {
          "index": 1
        }
      }
    }
  ],
  "meshes": [
    {
      "name": "Escudo_Material.001_0",
      "primitives": [
        {
          "attributes": {
            "NORMAL": 1,
            "POSITION": 0,
            "TANGENT": 2,
            "TEXCOORD_0": 3,
            "TEXCOORD_1": 4
          },
          "indices": 5,
          "material": 0,
          "mode": 4
        }
      ]
    },
    {
      "name": "Espada_Material.002_0",
      "primitives": [
        {
          "attributes": {
            "NORMAL": 7,
            "POSITION": 6,
            "TANGENT": 8,
            "TEXCOORD_0": 9,
            "TEXCOORD_1": 10
          },
          "indices": 11,
          "material": 1,
          "mode": 4
        }
      ]
    }
  ],
  "nodes": [
    {
      "children": [
        1
      ],
      "matrix": [
        1.0,
        0.0,
        0.0,
        0.0,
        0.0,
        2.220446049250313e-16,
        -1.0,
        0.0,
        0.0,
        1.0,
        2.220446049250313e-16,
        0.0,
        0.0,
        0.0,
        0.0,
        1.0
      ],
      "name": "Sketchfab_model"
    },
    {
      "children": [
        2
      ],
      "matrix": [
        1.0,
        0.0,
        0.0,
        0.0,
        0.0,
        0.0,
        1.0,
        0.0,
        0.0,
        -1.0,
        0.0,
        0.0,
        0.0,
        0.0,
        0.0,
        1.0
      ],
      "name": "c0c9eb6be90647998fb8537ae8730533.fbx"
    },
    {
      "children": [
        3,
        5
      ],
      "name": "RootNode"
    },
    {
      "children": [
        4
      ],
      "matrix": [
        100.0,
        0.0,
        0.0,
        0.0,
        0.0,
        -1.629206793918314e-05,
        -99.99999999999868,
        0.0,
        0.0,
        99.99999999999868,
        -1.629206793918314e-05,
        0.0,
        0.0,
        0.0,
        0.0,
        1.0
      ],
      "name": "Escudo"
    },
    {
      "mesh": 0,
      "name": "Escudo_Material.001_0"
    },
    {
      "children": [
        6
      ],
      "matrix": [
        100.0,
        0.0,
        0.0,
        0.0,
        0.0,
        -1.629206793918314e-05,
        -99.99999999999868,
        0.0,
        0.0,
        99.99999999999868,
        -1.629206793918314e-05,
        0.0,
        0.0,
        0.0,
        0.0,
        1.0
      ],
      "name": "Espada"
    },
    {
      "mesh": 1,
      "name": "Espada_Material.002_0"
    }
  ],
  "samplers": [
    {
      "magFilter": 9729,
      "minFilter": 9987,
      "wrapS": 10497,
      "wrapT": 10497
    }
  ],
  "scene": 0,
  "scenes": [
    {
      "name": "Sketchfab_Scene",
      "nodes": [
        0
      ]
    }
  ],
  "textures": [
    {
      "sampler": 0,
      "source": 0
    },
    {
      "sampler": 0,
      "source": 1
    },
    {
      "sampler": 0,
      "source": 2
    }
  ]
}
